<?xml version="1.0" encoding="UTF-8" standalone="no"?>
<!DOCTYPE svg PUBLIC "-//W3C//DTD SVG 1.1//EN"
 "http://www.w3.org/Graphics/SVG/1.1/DTD/svg11.dtd">
<!-- Generated by graphviz version 2.38.0 (20140413.2041)
 -->
<!-- Title: snakemake_dag Pages: 1 -->
<svg width="304pt" height="260pt"
 viewBox="0.00 0.00 303.54 260.00" xmlns="http://www.w3.org/2000/svg" xmlns:xlink="http://www.w3.org/1999/xlink">
<g id="graph0" class="graph" transform="scale(1 1) rotate(0) translate(4 256)">
<title>snakemake_dag</title>
<polygon fill="white" stroke="none" points="-4,4 -4,-256 299.543,-256 299.543,4 -4,4"/>
<!-- 0 -->
<g id="node1" class="node"><title>0</title>
<path fill="none" stroke="#56d8c9" stroke-width="2" d="M66.043,-180C66.043,-180 36.043,-180 36.043,-180 30.043,-180 24.043,-174 24.043,-168 24.043,-168 24.043,-156 24.043,-156 24.043,-150 30.043,-144 36.043,-144 36.043,-144 66.043,-144 66.043,-144 72.043,-144 78.043,-150 78.043,-156 78.043,-156 78.043,-168 78.043,-168 78.043,-174 72.043,-180 66.043,-180"/>
<text text-anchor="middle" x="51.043" y="-159.5" font-family="sans" font-size="10.00">bismark</text>
</g>
<!-- 2 -->
<g id="node3" class="node"><title>2</title>
<path fill="none" stroke="#c6d856" stroke-width="2" d="M131.043,-36C131.043,-36 101.043,-36 101.043,-36 95.043,-36 89.043,-30 89.043,-24 89.043,-24 89.043,-12 89.043,-12 89.043,-6 95.043,-0 101.043,-0 101.043,-0 131.043,-0 131.043,-0 137.043,-0 143.043,-6 143.043,-12 143.043,-12 143.043,-24 143.043,-24 143.043,-30 137.043,-36 131.043,-36"/>
<text text-anchor="middle" x="116.043" y="-15.5" font-family="sans" font-size="10.00">all</text>
</g>
<!-- 0&#45;&gt;2 -->
<g id="edge6" class="edge"><title>0&#45;&gt;2</title>
<path fill="none" stroke="grey" stroke-width="2" d="M31.2537,-143.791C12.7037,-125.505 -10.0806,-95.9802 5.04298,-72 21.1336,-46.4864 53.2604,-32.9923 78.8287,-26.0213"/>
<polygon fill="grey" stroke="grey" stroke-width="2" points="79.7578,-29.3968 88.6112,-23.5772 78.061,-22.6056 79.7578,-29.3968"/>
</g>
<!-- 3 -->
<g id="node4" class="node"><title>3</title>
<path fill="none" stroke="#56d87b" stroke-width="2" d="M76.043,-108C76.043,-108 26.043,-108 26.043,-108 20.043,-108 14.043,-102 14.043,-96 14.043,-96 14.043,-84 14.043,-84 14.043,-78 20.043,-72 26.043,-72 26.043,-72 76.043,-72 76.043,-72 82.043,-72 88.043,-78 88.043,-84 88.043,-84 88.043,-96 88.043,-96 88.043,-102 82.043,-108 76.043,-108"/>
<text text-anchor="middle" x="51.043" y="-87.5" font-family="sans" font-size="10.00">deduplication</text>
</g>
<!-- 0&#45;&gt;3 -->
<g id="edge7" class="edge"><title>0&#45;&gt;3</title>
<path fill="none" stroke="grey" stroke-width="2" d="M51.043,-143.697C51.043,-135.983 51.043,-126.712 51.043,-118.112"/>
<polygon fill="grey" stroke="grey" stroke-width="2" points="54.5431,-118.104 51.043,-108.104 47.5431,-118.104 54.5431,-118.104"/>
</g>
<!-- 1 -->
<g id="node2" class="node"><title>1</title>
<path fill="none" stroke="#78d856" stroke-width="2" d="M160.543,-252C160.543,-252 71.543,-252 71.543,-252 65.543,-252 59.543,-246 59.543,-240 59.543,-240 59.543,-228 59.543,-228 59.543,-222 65.543,-216 71.543,-216 71.543,-216 160.543,-216 160.543,-216 166.543,-216 172.543,-222 172.543,-228 172.543,-228 172.543,-240 172.543,-240 172.543,-246 166.543,-252 160.543,-252"/>
<text text-anchor="middle" x="116.043" y="-237" font-family="sans" font-size="10.00">cutadapt</text>
<text text-anchor="middle" x="116.043" y="-226" font-family="sans" font-size="10.00">sample: SRR2075691</text>
</g>
<!-- 1&#45;&gt;0 -->
<g id="edge1" class="edge"><title>1&#45;&gt;0</title>
<path fill="none" stroke="grey" stroke-width="2" d="M99.9756,-215.697C92.1042,-207.22 82.4877,-196.864 73.8697,-187.583"/>
<polygon fill="grey" stroke="grey" stroke-width="2" points="76.2949,-185.051 66.9256,-180.104 71.1653,-189.814 76.2949,-185.051"/>
</g>
<!-- 1&#45;&gt;2 -->
<g id="edge2" class="edge"><title>1&#45;&gt;2</title>
<path fill="none" stroke="grey" stroke-width="2" d="M116.043,-215.849C116.043,-178.832 116.043,-91.1809 116.043,-46.3863"/>
<polygon fill="grey" stroke="grey" stroke-width="2" points="119.543,-46.2324 116.043,-36.2325 112.543,-46.2325 119.543,-46.2324"/>
</g>
<!-- 5 -->
<g id="node6" class="node"><title>5</title>
<path fill="none" stroke="#d8a456" stroke-width="2" d="M243.543,-180C243.543,-180 156.543,-180 156.543,-180 150.543,-180 144.543,-174 144.543,-168 144.543,-168 144.543,-156 144.543,-156 144.543,-150 150.543,-144 156.543,-144 156.543,-144 243.543,-144 243.543,-144 249.543,-144 255.543,-150 255.543,-156 255.543,-156 255.543,-168 255.543,-168 255.543,-174 249.543,-180 243.543,-180"/>
<text text-anchor="middle" x="200.043" y="-159.5" font-family="sans" font-size="10.00">fastqc_after_trimming</text>
</g>
<!-- 1&#45;&gt;5 -->
<g id="edge8" class="edge"><title>1&#45;&gt;5</title>
<path fill="none" stroke="grey" stroke-width="2" d="M136.807,-215.697C147.284,-206.965 160.154,-196.24 171.543,-186.75"/>
<polygon fill="grey" stroke="grey" stroke-width="2" points="174.076,-189.195 179.518,-180.104 169.595,-183.817 174.076,-189.195"/>
</g>
<!-- 3&#45;&gt;2 -->
<g id="edge5" class="edge"><title>3&#45;&gt;2</title>
<path fill="none" stroke="grey" stroke-width="2" d="M67.1104,-71.6966C74.9817,-63.2198 84.5983,-52.8636 93.2163,-43.5826"/>
<polygon fill="grey" stroke="grey" stroke-width="2" points="95.9206,-45.8139 100.16,-36.1043 90.7911,-41.0507 95.9206,-45.8139"/>
</g>
<!-- 4 -->
<g id="node5" class="node"><title>4</title>
<path fill="none" stroke="#d85656" stroke-width="2" d="M283.543,-108C283.543,-108 194.543,-108 194.543,-108 188.543,-108 182.543,-102 182.543,-96 182.543,-96 182.543,-84 182.543,-84 182.543,-78 188.543,-72 194.543,-72 194.543,-72 283.543,-72 283.543,-72 289.543,-72 295.543,-78 295.543,-84 295.543,-84 295.543,-96 295.543,-96 295.543,-102 289.543,-108 283.543,-108"/>
<text text-anchor="middle" x="239.043" y="-93" font-family="sans" font-size="10.00">fastqc</text>
<text text-anchor="middle" x="239.043" y="-82" font-family="sans" font-size="10.00">sample: SRR2075691</text>
</g>
<!-- 4&#45;&gt;2 -->
<g id="edge3" class="edge"><title>4&#45;&gt;2</title>
<path fill="none" stroke="grey" stroke-width="2" d="M208.954,-71.8761C191.875,-62.1563 170.378,-49.9222 152.364,-39.6706"/>
<polygon fill="grey" stroke="grey" stroke-width="2" points="153.726,-36.4185 143.304,-34.5142 150.264,-42.5023 153.726,-36.4185"/>
</g>
<!-- 5&#45;&gt;2 -->
<g id="edge4" class="edge"><title>5&#45;&gt;2</title>
<path fill="none" stroke="grey" stroke-width="2" d="M189.911,-143.871C175.342,-119.244 148.364,-73.6377 131.355,-44.8845"/>
<polygon fill="grey" stroke="grey" stroke-width="2" points="134.315,-43.0141 126.211,-36.1893 128.29,-46.5781 134.315,-43.0141"/>
</g>
</g>
</svg>
